<svg width="20" height="20" viewBox="0 0 20 20" fill="none" xmlns="http://www.w3.org/2000/svg">
<path d="M5.35002 14.7749C3.49169 13.5582 2.29169 11.7249 2.29169 10.1165C2.29169 7.3832 5.74169 4.0332 10 4.0332C11.7417 4.0332 13.3584 4.59154 14.6584 5.4582" stroke="#727272" stroke-width="1.5" stroke-linecap="round" stroke-linejoin="round"/>
<path d="M16.5414 7.17517C17.2839 8.11684 17.7164 9.1585 17.7164 10.1168C17.7164 12.8502 14.2581 16.2002 9.99977 16.2002C9.24144 16.2002 8.50061 16.0918 7.80811 15.9002" stroke="#727272" stroke-width="1.5" stroke-linecap="round" stroke-linejoin="round"/>
<path d="M8.1381 11.9725C7.64227 11.4817 7.36477 10.8125 7.36727 10.115C7.36393 8.66086 8.5406 7.47919 9.9956 7.47669C10.6956 7.47503 11.3673 7.75253 11.8623 8.24753" stroke="#727272" stroke-width="1.5" stroke-linecap="round" stroke-linejoin="round"/>
<path d="M12.5913 10.5825C12.3963 11.6592 11.5538 12.5034 10.4771 12.7009" stroke="#727272" stroke-width="1.5" stroke-linecap="round" stroke-linejoin="round"/>
<path d="M16.5764 3.5415L3.4314 16.6865" stroke="#727272" stroke-width="1.5" stroke-linecap="round" stroke-linejoin="round"/>
</svg>
